<svg width="1600" height="1000" viewBox="0 0 1600 1000" fill="none" xmlns="http://www.w3.org/2000/svg">
  <defs>
    <linearGradient id="bg" x1="200" y1="80" x2="1400" y2="920" gradientUnits="userSpaceOnUse">
      <stop stop-color="#FFF7ED"/>
      <stop offset="0.52" stop-color="#FFEDD5"/>
      <stop offset="1" stop-color="#FED7AA"/>
    </linearGradient>
    <radialGradient id="lightA" cx="0" cy="0" r="1" gradientUnits="userSpaceOnUse" gradientTransform="translate(360 180) rotate(38) scale(380 250)">
      <stop stop-color="white" stop-opacity="0.95"/>
      <stop offset="1" stop-color="white" stop-opacity="0"/>
    </radialGradient>
    <radialGradient id="lightB" cx="0" cy="0" r="1" gradientUnits="userSpaceOnUse" gradientTransform="translate(1230 760) rotate(215) scale(420 320)">
      <stop stop-color="#FB923C" stop-opacity="0.35"/>
      <stop offset="1" stop-color="#FB923C" stop-opacity="0"/>
    </radialGradient>
    <linearGradient id="counter" x1="180" y1="600" x2="1420" y2="850" gradientUnits="userSpaceOnUse">
      <stop stop-color="#334155"/>
      <stop offset="1" stop-color="#0F172A"/>
    </linearGradient>
    <linearGradient id="screen" x1="540" y1="245" x2="1080" y2="590" gradientUnits="userSpaceOnUse">
      <stop stop-color="#FFFFFF"/>
      <stop offset="1" stop-color="#FFFBF6"/>
    </linearGradient>
    <linearGradient id="plate" x1="725" y1="700" x2="1030" y2="860" gradientUnits="userSpaceOnUse">
      <stop stop-color="#FFFFFF"/>
      <stop offset="1" stop-color="#F8FAFC"/>
    </linearGradient>
  </defs>

  <rect width="1600" height="1000" rx="40" fill="url(#bg)"/>
  <rect width="1600" height="1000" rx="40" fill="url(#lightA)"/>
  <rect width="1600" height="1000" rx="40" fill="url(#lightB)"/>

  <rect x="130" y="620" width="1340" height="230" rx="36" fill="url(#counter)"/>
  <rect x="170" y="650" width="1260" height="30" rx="15" fill="#475569" fill-opacity="0.5"/>

  <rect x="500" y="200" width="600" height="430" rx="30" fill="#F8FAFC"/>
  <rect x="525" y="225" width="550" height="365" rx="20" fill="url(#screen)" stroke="#FED7AA" stroke-width="3"/>
  <circle cx="800" cy="610" r="7" fill="#94A3B8"/>

  <rect x="560" y="270" width="220" height="26" rx="13" fill="#FCD9B5"/>
  <rect x="560" y="311" width="410" height="18" rx="9" fill="#FEECD5"/>

  <rect x="560" y="360" width="470" height="74" rx="18" fill="#FFFBEB" stroke="#FED7AA" stroke-width="2"/>
  <circle cx="605" cy="397" r="18" fill="#FB923C"/>
  <rect x="638" y="387" width="170" height="10" rx="5" fill="#FDBA74"/>
  <rect x="638" y="405" width="120" height="10" rx="5" fill="#FED7AA"/>

  <rect x="560" y="456" width="305" height="74" rx="18" fill="#FFFFFF" stroke="#FED7AA" stroke-width="2"/>
  <circle cx="605" cy="493" r="18" fill="#F59E0B"/>
  <rect x="638" y="484" width="138" height="10" rx="5" fill="#FDBA74"/>
  <rect x="638" y="502" width="90" height="10" rx="5" fill="#FED7AA"/>

  <rect x="890" y="456" width="140" height="74" rx="18" fill="#EA580C"/>
  <rect x="925" y="490" width="70" height="10" rx="5" fill="#FFF7ED"/>

  <ellipse cx="890" cy="780" rx="205" ry="95" fill="url(#plate)" stroke="#E2E8F0" stroke-width="4"/>
  <ellipse cx="890" cy="780" rx="168" ry="67" fill="#FFFBEB"/>
  <circle cx="825" cy="772" r="33" fill="#F97316"/>
  <circle cx="877" cy="744" r="30" fill="#F59E0B"/>
  <circle cx="930" cy="773" r="31" fill="#EA580C"/>
  <circle cx="960" cy="735" r="22" fill="#FDBA74"/>
  <path d="M780 810C815 777 852 777 884 810" stroke="#15803D" stroke-width="12" stroke-linecap="round"/>
  <path d="M892 814C924 785 958 787 993 814" stroke="#166534" stroke-width="12" stroke-linecap="round"/>

  <rect x="340" y="690" width="210" height="122" rx="24" fill="#FFFFFF" stroke="#E2E8F0" stroke-width="3"/>
  <rect x="370" y="722" width="108" height="14" rx="7" fill="#FDBA74"/>
  <rect x="370" y="748" width="145" height="12" rx="6" fill="#FED7AA"/>
  <circle cx="500" cy="764" r="22" fill="#FB923C"/>

  <rect x="1110" y="680" width="170" height="150" rx="24" fill="#FFFFFF" stroke="#E2E8F0" stroke-width="3"/>
  <path d="M1145 784L1188 726L1238 796" stroke="#FDBA74" stroke-width="16" stroke-linecap="round" stroke-linejoin="round"/>
  <circle cx="1234" cy="721" r="14" fill="#FB923C"/>
</svg>
